<?xml version="1.0" standalone="no"?>
<!DOCTYPE svg PUBLIC "-//W3C//DTD SVG 20010904//EN"
 "http://www.w3.org/TR/2001/REC-SVG-20010904/DTD/svg10.dtd">
<svg version="1.0" xmlns="http://www.w3.org/2000/svg"
 width="231.000000pt" height="201.000000pt" viewBox="0 0 231.000000 201.000000"
 preserveAspectRatio="xMidYMid meet">

<g transform="translate(0.000000,201.000000) scale(0.100000,-0.100000)"
fill="#000000" stroke="none">
<path d="M1780 1179 c-150 -68 -305 -95 -595 -103 -219 -6 -321 -21 -411 -61
-69 -30 -158 -96 -175 -128 -11 -21 -11 -21 7 -6 23 20 93 56 148 76 74 26
138 33 396 43 259 9 336 19 448 61 73 26 130 56 177 92 72 55 73 57 5 26z"/>
<path d="M1791 1028 c-155 -63 -232 -75 -551 -88 -332 -12 -438 -42 -555 -154
l-60 -57 45 27 c125 76 244 104 444 104 302 1 465 27 611 99 65 33 165 101
145 100 -3 0 -38 -14 -79 -31z"/>
<path d="M350 480 l0 -140 30 0 c28 0 29 1 32 57 l3 57 44 -57 43 -57 65 0
c62 0 64 1 74 30 10 28 14 30 66 30 52 0 55 -2 66 -30 9 -25 17 -30 44 -30
l32 0 -57 140 c-53 130 -59 140 -83 140 -25 0 -31 -9 -79 -130 -29 -72 -55
-132 -59 -134 -4 -3 -25 18 -48 46 l-41 51 23 19 c46 36 40 114 -11 137 -14 6
-52 11 -84 11 l-60 0 0 -140z m120 75 c23 -27 -7 -64 -52 -65 -5 0 -8 18 -8
40 0 35 3 40 24 40 13 0 29 -7 36 -15z m254 -49 c3 -13 9 -31 12 -40 5 -13 -1
-16 -25 -16 -34 0 -36 3 -20 49 13 37 25 40 33 7z"/>
<path d="M870 480 l0 -140 30 0 c30 0 30 1 30 55 l0 55 40 0 c68 0 108 61 84
125 -11 27 -60 45 -124 45 l-60 0 0 -140z m118 78 c18 -18 14 -46 -7 -58 -38
-20 -51 -13 -51 30 0 35 3 40 23 40 13 0 28 -5 35 -12z"/>
<path d="M1160 607 c-86 -43 -94 -183 -14 -246 32 -25 101 -28 145 -6 92 48
92 202 0 250 -36 18 -97 19 -131 2z m93 -48 c14 -6 30 -22 36 -36 32 -69 -12
-134 -84 -124 -66 8 -76 135 -12 161 30 12 32 12 60 -1z"/>
<path d="M1400 480 l0 -140 51 0 c99 0 159 53 159 140 0 89 -58 140 -160 140
l-50 0 0 -140z m128 57 c45 -42 14 -137 -45 -137 -22 0 -23 3 -23 86 0 84 0
85 23 79 12 -4 32 -17 45 -28z"/>
<path d="M1650 480 l0 -140 30 0 30 0 0 140 0 140 -30 0 -30 0 0 -140z"/>
<path d="M1805 598 c-103 -81 -50 -258 78 -258 76 0 127 50 127 125 l0 35 -60
0 c-57 0 -60 -1 -60 -25 0 -21 5 -25 30 -25 36 0 40 -22 8 -44 -33 -23 -56
-20 -89 13 -71 72 8 192 90 135 21 -15 24 -15 38 -1 53 53 -98 95 -162 45z"/>
<path d="M788 193 c7 -3 16 -2 19 1 4 3 -2 6 -13 5 -11 0 -14 -3 -6 -6z"/>
<path d="M928 193 c6 -2 18 -2 25 0 6 3 1 5 -13 5 -14 0 -19 -2 -12 -5z"/>
<path d="M996 191 c-4 -5 3 -7 14 -4 23 6 26 13 6 13 -8 0 -17 -4 -20 -9z"/>
<path d="M1088 193 c7 -3 16 -2 19 1 4 3 -2 6 -13 5 -11 0 -14 -3 -6 -6z"/>
<path d="M1180 196 c0 -2 11 -6 25 -8 13 -3 22 -1 19 3 -5 9 -44 13 -44 5z"/>
<path d="M1318 193 c7 -3 16 -2 19 1 4 3 -2 6 -13 5 -11 0 -14 -3 -6 -6z"/>
<path d="M1413 193 c9 -2 23 -2 30 0 6 3 -1 5 -18 5 -16 0 -22 -2 -12 -5z"/>
<path d="M788 153 c7 -3 16 -2 19 1 4 3 -2 6 -13 5 -11 0 -14 -3 -6 -6z"/>
<path d="M928 153 c7 -3 16 -2 19 1 4 3 -2 6 -13 5 -11 0 -14 -3 -6 -6z"/>
<path d="M1088 153 c7 -3 16 -2 19 1 4 3 -2 6 -13 5 -11 0 -14 -3 -6 -6z"/>
<path d="M850 146 c0 -2 11 -6 25 -8 13 -3 22 -1 19 3 -5 9 -44 13 -44 5z"/>
<path d="M1478 143 c6 -2 18 -2 25 0 6 3 1 5 -13 5 -14 0 -19 -2 -12 -5z"/>
<path d="M998 128 c5 -5 16 -8 23 -6 8 3 3 7 -10 11 -17 4 -21 3 -13 -5z"/>
<path d="M1188 123 c7 -3 16 -2 19 1 4 3 -2 6 -13 5 -11 0 -14 -3 -6 -6z"/>
<path d="M1318 123 c6 -2 18 -2 25 0 6 3 1 5 -13 5 -14 0 -19 -2 -12 -5z"/>
<path d="M1548 123 c6 -2 18 -2 25 0 6 3 1 5 -13 5 -14 0 -19 -2 -12 -5z"/>
</g>
</svg>
